PathFileType	4	(X/Y/Z)	D:\TRACE\v60_Jaco2_6-2-23\BothDRS_Motion3_10-v60.trc
DataRate	CameraRate	NumFrames	NumMarkers	Units	OrigDataRate	OrigDataStartFrame	OrigNumFrames
100.00	100.00	      35	9	mm	100.00	1	      7000
Frame#	Time	front left toe			Front right toe			aft left toe			aft right toe			Arm			FL body			FR body			AL Body			AR Body			
		X1	Y1	Z1	X2	Y2	Z2	X3	Y3	Z3	X4	Y4	Z4	X5	Y5	Z5	X6	Y6	Z6	X7	Y7	Z7	X8	Y8	Z8	X9	Y9	Z9	

1	0.000	-132.48477	67.45927	-235.82336	301.28653	70.18717	-244.13008	-125.16591	-41.92028	375.19928	243.00029	-43.08166	379.37192	97.71889	1254.09229	-148.48224	6.51552	640.51782	-382.59717	165.56860	639.39417	-377.88486	-14.61227	482.21130	548.48041	138.47124	472.20663	550.84760	
2	0.010	-132.49446	67.48302	-235.79115	301.38144	70.25581	-244.08595	-125.13976	-41.89613	375.17188	243.03378	-43.01075	379.30548	97.72604	1254.10498	-148.45627	6.51710	640.51801	-382.62149	165.58182	639.39893	-377.89597	-14.57985	482.20392	548.47162	138.47321	472.20667	550.83246	
3	0.020	-132.51509	67.47686	-235.79427	301.29727	70.24428	-244.13062	-125.17232	-41.90447	375.17468	243.05174	-43.04772	379.35300	97.77367	1254.10864	-148.46869	6.48905	640.52466	-382.60220	165.57762	639.38202	-377.88147	-14.59971	482.21176	548.48633	138.47884	472.23532	550.84418	
4	0.030	-132.51337	67.47997	-235.79836	301.25549	70.16257	-244.13707	-125.14965	-41.88421	375.16360	242.98750	-43.08309	379.33557	97.69778	1254.07520	-148.45445	6.47319	640.53986	-382.61627	165.57013	639.40692	-377.90802	-14.57333	482.20111	548.47998	138.44212	472.16858	550.84656	
5	0.040	-132.49666	67.47512	-235.79744	301.17453	70.16085	-244.14343	-125.14417	-41.94810	375.19122	242.99623	-43.10177	379.36618	97.63284	1254.08105	-148.50409	6.50030	640.52582	-382.60342	165.58069	639.38635	-377.91910	-14.59929	482.19449	548.52368	138.46309	472.17361	550.85126	
6	0.050	-132.48482	67.46478	-235.79778	301.23764	70.17069	-244.13994	-125.15127	-41.93197	375.19031	242.99149	-43.09390	379.34799	97.70576	1254.08618	-148.45218	6.48015	640.54175	-382.61420	165.52150	639.39825	-377.91580	-14.52331	482.19858	548.49127	138.43040	472.15720	550.83978	
7	0.060	-132.51117	67.47720	-235.78459	301.41010	70.28714	-244.07257	-125.15299	-41.88779	375.18704	243.04868	-43.01587	379.34683	97.74261	1254.09900	-148.46468	6.51429	640.53290	-382.60342	165.56438	639.43561	-377.86932	-14.58802	482.20001	548.48822	138.45996	472.19415	550.83691	
8	0.070	-132.48308	67.44978	-235.76604	301.32910	70.22956	-244.12549	-125.12256	-41.90902	375.18021	243.04021	-43.02459	379.33453	97.77235	1254.09277	-148.44122	6.50096	640.52850	-382.61697	165.61211	639.40289	-377.87155	-14.49507	482.22058	548.47290	138.53151	472.20370	550.83734	
9	0.080	-132.48325	67.49967	-235.79292	301.32593	70.23540	-244.08824	-125.14547	-41.93742	375.17120	242.98578	-43.08377	379.34375	97.74953	1254.10693	-148.47614	6.54148	640.53961	-382.60315	165.55370	639.44482	-377.88712	-14.50505	482.19891	548.45990	138.47169	472.20227	550.85175	
10	0.090	-132.48566	67.47104	-235.79414	301.14813	70.13012	-244.15411	-125.13464	-41.93219	375.14059	242.96107	-43.06551	379.35397	97.70901	1254.09351	-148.45808	6.51979	640.52356	-382.62753	165.57898	639.39819	-377.92517	-14.56935	482.15927	548.46655	138.47934	472.15784	550.84174	
11	0.100	-132.50528	67.48224	-235.76022	301.08313	70.07477	-244.17422	-125.16567	-41.91765	375.20990	242.95030	-43.12866	379.33597	97.69298	1254.09570	-148.48230	6.51501	640.53094	-382.59689	165.64755	639.34973	-377.88885	-14.60537	482.14224	548.49768	138.47668	472.12918	550.84436	
12	0.110	-132.47528	67.47343	-235.76866	301.21225	70.15822	-244.17052	-125.14109	-41.90731	375.19855	242.98619	-43.08075	379.31607	97.69121	1254.10315	-148.47197	6.49818	640.53308	-382.61014	165.54596	639.38818	-377.90179	-14.52388	482.17407	548.47729	138.42731	472.14545	550.85876	
13	0.120	-132.48492	67.46111	-235.78737	301.16721	70.15971	-244.16589	-125.16686	-41.89969	375.18808	243.01564	-43.05187	379.33356	97.69113	1254.10974	-148.47060	6.52986	640.53986	-382.60941	165.61867	639.40027	-377.92517	-14.60692	482.19687	548.47717	138.43440	472.16446	550.80426	
14	0.130	-132.48405	67.46400	-235.77797	301.32184	70.23367	-244.11766	-125.14655	-41.88671	375.16153	243.03572	-43.06303	379.34790	97.80318	1254.09619	-148.45271	6.48892	640.53394	-382.60898	165.64192	639.38654	-377.86035	-14.53491	482.19052	548.48309	138.49844	472.18185	550.85461	
15	0.140	-132.49280	67.48206	-235.79672	301.17282	70.16452	-244.21080	-125.15594	-41.90410	375.16553	242.96767	-43.07571	379.33334	97.71368	1254.11426	-148.47525	6.49203	640.53333	-382.60895	165.57175	639.38208	-377.88589	-14.58553	482.18921	548.49615	138.43314	472.17740	550.85004	
16	0.150	-132.46840	67.48234	-235.78885	301.24637	70.13924	-244.19559	-125.16656	-41.93851	375.19266	242.99437	-43.08472	379.35458	97.72329	1254.09241	-148.45403	6.52976	640.54034	-382.62430	165.52003	639.40247	-377.91620	-14.61000	482.18182	548.47711	138.45575	472.18604	550.83337	
17	0.160	-132.49571	67.47336	-235.77939	301.17245	70.14024	-244.20505	-125.16689	-41.90368	375.17950	242.99756	-43.07196	379.35190	97.72430	1254.10876	-148.45587	6.52373	640.52863	-382.62982	165.58032	639.36890	-377.86594	-14.56703	482.19669	548.46637	138.46188	472.17526	550.87537	
18	0.170	-132.46605	67.44000	-235.78537	301.29855	70.23841	-244.12894	-125.15849	-41.90522	375.18576	243.02242	-43.06337	379.36438	97.75053	1254.12085	-148.47450	6.51600	640.53058	-382.62244	165.54103	639.37317	-377.90576	-14.53992	482.21893	548.48615	138.46344	472.16470	550.83191	
19	0.180	-132.48196	67.47183	-235.76231	301.39203	70.27851	-244.07184	-125.18320	-41.86394	375.14182	243.03047	-42.98187	379.31256	97.74861	1254.11841	-148.44849	6.54033	640.52258	-382.62216	165.49478	639.45081	-377.91577	-14.46376	482.20804	548.47266	138.48930	472.20453	550.85510	
20	0.190	-132.48483	67.46854	-235.76125	301.29449	70.22620	-244.14369	-125.15244	-41.90350	375.19040	243.03902	-42.99800	379.33218	97.78673	1254.11255	-148.44984	6.50820	640.53455	-382.60501	165.60912	639.40015	-377.88745	-14.58484	482.21365	548.48181	138.47107	472.16888	550.80859	
21	0.200	-132.50598	67.48088	-235.79079	301.22830	70.20261	-244.14694	-125.14046	-41.93319	375.20212	243.00591	-43.06261	379.34741	97.77072	1254.11511	-148.44148	6.52626	640.55249	-382.60056	165.55756	639.40643	-377.87036	-14.56567	482.19394	548.49036	138.44733	472.19366	550.83209	
22	0.210	-132.50150	67.47536	-235.80180	301.26132	70.19486	-244.18427	-125.18962	-41.90839	375.20520	242.98782	-43.05937	379.32611	97.70074	1254.11707	-148.44611	6.50147	640.54193	-382.61835	165.58141	639.40717	-377.90665	-14.62432	482.18478	548.49823	138.45627	472.16638	550.82843	
23	0.220	-132.49783	67.48464	-235.80908	301.15958	70.14256	-244.19818	-125.17192	-41.91256	375.20572	242.99088	-43.07383	379.30933	97.68550	1254.06812	-148.47710	6.50692	640.53607	-382.60226	165.58029	639.41174	-377.90485	-14.59519	482.18121	548.49768	138.45435	472.16077	550.83191	
24	0.230	-132.49515	67.47954	-235.77080	301.15866	70.13424	-244.18700	-125.16613	-41.92393	375.19904	242.98747	-43.04233	379.33731	97.75223	1254.11780	-148.46031	6.54571	640.52905	-382.62494	165.56660	639.43958	-377.92856	-14.58723	482.17352	548.45898	138.46312	472.16946	550.84912	
25	0.240	-132.48241	67.44904	-235.78749	301.16660	70.13322	-244.19125	-125.12751	-41.90070	375.16620	243.01193	-43.01899	379.35275	97.79684	1254.09509	-148.46231	6.51170	640.52094	-382.60724	165.55003	639.44000	-377.89630	-14.54576	482.20670	548.49005	138.48013	472.18835	550.82275	
26	0.250	-132.49666	67.47820	-235.80493	301.16266	70.15105	-244.19389	-125.15031	-41.91210	375.16919	242.98175	-43.08606	379.33514	97.74397	1254.10059	-148.46326	6.56370	640.53259	-382.63083	165.59387	639.43219	-377.89758	-14.50276	482.18375	548.48621	138.43755	472.16675	550.84668	
27	0.260	-132.47345	67.47041	-235.81995	301.19333	70.14326	-244.15425	-125.13271	-41.92621	375.18021	242.99385	-43.09182	379.36584	97.71687	1254.11621	-148.45224	6.50792	640.54224	-382.61301	165.59050	639.41638	-377.89703	-14.55092	482.21191	548.49579	138.42949	472.15994	550.83044	
28	0.270	-132.49007	67.46472	-235.79567	301.25494	70.15719	-244.12561	-125.15539	-41.89048	375.18939	243.02266	-43.06141	379.34845	97.74577	1254.09875	-148.43280	6.49343	640.54858	-382.60208	165.54585	639.42047	-377.90952	-14.55712	482.17236	548.47363	138.46533	472.15848	550.83936	
29	0.280	-132.46426	67.46448	-235.78003	301.16199	70.12334	-244.17952	-125.15914	-41.90219	375.18640	242.99063	-43.08907	379.35599	97.72869	1254.11609	-148.44867	6.52664	640.52948	-382.60040	165.61137	639.38068	-377.90073	-14.55586	482.17502	548.48987	138.46043	472.17749	550.85870	
30	0.290	-132.49051	67.45345	-235.78073	301.27783	70.18425	-244.13554	-125.15127	-41.94059	375.15985	243.00023	-43.07161	379.34381	97.76259	1254.10205	-148.46637	6.51968	640.53290	-382.62943	165.56390	639.44745	-377.88846	-14.50879	482.19986	548.50452	138.48872	472.18271	550.85492	
31	0.300	-132.49556	67.46765	-235.81726	301.21234	70.15865	-244.19479	-125.15591	-41.92651	375.14453	243.00301	-43.07123	379.36328	97.78947	1254.08533	-148.43312	6.52609	640.54303	-382.61676	165.59846	639.43005	-377.86765	-14.55948	482.21533	548.48724	138.50063	472.16943	550.85797	
32	0.310	-132.47672	67.45245	-235.78909	301.16766	70.13577	-244.16582	-125.16494	-41.88827	375.17960	243.01355	-43.02114	379.34549	97.72726	1254.09448	-148.47879	6.53274	640.53467	-382.61456	165.57855	639.41785	-377.92392	-14.59639	482.19522	548.46613	138.43474	472.17023	550.85040	
33	0.320	-132.52571	67.47178	-235.81058	301.09607	70.12242	-244.21570	-125.16561	-41.91809	375.16879	242.99181	-43.06356	379.35236	97.72517	1254.08972	-148.47281	6.55536	640.53906	-382.59268	165.57109	639.42499	-377.91360	-14.59289	482.20425	548.49078	138.43967	472.16415	550.85614	
34	0.330	-132.47102	67.46497	-235.79352	301.21564	70.17939	-244.19440	-125.14856	-41.90261	375.16437	243.02135	-43.05289	379.35785	97.80949	1254.10706	-148.43950	6.50353	640.53925	-382.59821	165.58603	639.40210	-377.89108	-14.57519	482.19528	548.50055	138.44006	472.15106	550.84473	
35	0.340	-132.49092	67.48752	-235.80579	301.15826	70.15797	-244.17340	-125.14798	-41.93181	375.17554	242.98694	-43.05829	379.34460	97.72964	1254.10925	-148.44711	6.53480	640.53162	-382.62503	165.52800	639.40033	-377.91937	-14.54065	482.17551	548.47479	138.46365	472.17294	550.83575	
